<svg id="Layer_1" data-name="Layer 1" xmlns="http://www.w3.org/2000/svg" xmlns:xlink="http://www.w3.org/1999/xlink" viewBox="0 0 106 31.39"><defs><style>.cls-1{fill:#fff;}.cls-2{fill:url(#linear-gradient);}</style><linearGradient id="linear-gradient" x1="77.72" y1="782.48" x2="77.72" y2="754.19" gradientTransform="translate(0 -751)" gradientUnits="userSpaceOnUse"><stop offset="0" stop-color="#1a1a1a" stop-opacity="0.1"/><stop offset="0.12" stop-color="#212120" stop-opacity="0.15"/><stop offset="0.31" stop-color="#353535" stop-opacity="0.23"/><stop offset="0.53" stop-color="#575757" stop-opacity="0.32"/><stop offset="0.78" stop-color="#838484" stop-opacity="0.42"/><stop offset="1" stop-color="#b3b2b3" stop-opacity="0.51"/></linearGradient></defs><title>App Store</title><path class="cls-1" d="M105.25,27.69a3,3,0,0,1-3,3H3.76a3,3,0,0,1-3-3v-24a3,3,0,0,1,3-3h98.48a3,3,0,0,1,3,3v24Z"/><path d="M102.24,31.39H3.76A3.71,3.71,0,0,1,0,27.69v-24A3.72,3.72,0,0,1,3.76,0h98.48A3.72,3.72,0,0,1,106,3.71v24a3.71,3.71,0,0,1-3.71,3.71Z"/><path d="M105.25,27.69a3,3,0,0,1-3,3H3.76a3,3,0,0,1-3-3v-24a3,3,0,0,1,3-3h98.48a3,3,0,0,1,3,3v24Z"/><path class="cls-1" d="M23.7,15.53a4.55,4.55,0,0,1,2.17-3.82,4.66,4.66,0,0,0-3.67-2c-1.54-.16-3,.92-3.83.92s-2-.91-3.32-.88a4.89,4.89,0,0,0-4.11,2.51c-1.78,3.08-.45,7.6,1.25,10.09C13,23.59,14,25,15.34,24.91s1.75-.81,3.29-.81,2,.81,3.3.78,2.23-1.22,3.05-2.45a10.06,10.06,0,0,0,1.4-2.84A4.4,4.4,0,0,1,23.7,15.53Z"/><path class="cls-1" d="M21.18,8.09a4.48,4.48,0,0,0,1-3.21,4.56,4.56,0,0,0-2.95,1.53A4.26,4.26,0,0,0,18.21,9.5,3.77,3.77,0,0,0,21.18,8.09Z"/><path class="cls-2" d="M102.24,0H49.49L70.15,31.39h32.09A3.71,3.71,0,0,0,106,27.68v-24A3.72,3.72,0,0,0,102.24,0Z"/><path class="cls-1" d="M42.17,24.73H40.39l-1-3.07H36l-.93,3.07H33.35l3.36-10.45h2.08Zm-3.05-4.36-.88-2.73q-.14-.42-.53-2h0q-.16.67-.5,2l-.87,2.73Z"/><path class="cls-1" d="M50.8,20.87a4.27,4.27,0,0,1-1,3,3.06,3.06,0,0,1-2.32,1,2.32,2.32,0,0,1-2.15-1.07v4H43.61V19.68q0-1.21-.06-2.48H45l.09,1.19h0a3,3,0,0,1,4.76-.3A4.16,4.16,0,0,1,50.8,20.87Zm-1.7.06a3.1,3.1,0,0,0-.5-1.81,1.71,1.71,0,0,0-1.46-.74,1.74,1.74,0,0,0-1.12.41,1.9,1.9,0,0,0-.66,1.08,2.19,2.19,0,0,0-.08.51v1.26a2,2,0,0,0,.5,1.39,1.67,1.67,0,0,0,1.31.57,1.71,1.71,0,0,0,1.47-.73A3.21,3.21,0,0,0,49.1,20.93Z"/><path class="cls-1" d="M59.46,20.87a4.27,4.27,0,0,1-1,3,3.06,3.06,0,0,1-2.32,1,2.33,2.33,0,0,1-2.15-1.07v4H52.27V19.68q0-1.21-.06-2.48h1.47l.09,1.19h0a3,3,0,0,1,4.77-.3A4.17,4.17,0,0,1,59.46,20.87Zm-1.71.06a3.1,3.1,0,0,0-.5-1.81,1.71,1.71,0,0,0-1.46-.74,1.74,1.74,0,0,0-1.12.41A1.9,1.9,0,0,0,54,19.87a2.22,2.22,0,0,0-.08.51v1.26a2,2,0,0,0,.5,1.39,1.68,1.68,0,0,0,1.31.57,1.71,1.71,0,0,0,1.47-.73A3.21,3.21,0,0,0,57.76,20.93Z"/><path class="cls-1" d="M69.15,21.8A2.79,2.79,0,0,1,68.22,24a4.11,4.11,0,0,1-2.85.91,5,5,0,0,1-2.7-.65l.39-1.4a4.66,4.66,0,0,0,2.42.65,2.28,2.28,0,0,0,1.47-.43,1.39,1.39,0,0,0,.53-1.14A1.46,1.46,0,0,0,67,20.86a4,4,0,0,0-1.44-.8q-2.74-1-2.74-3a2.64,2.64,0,0,1,1-2.11,3.83,3.83,0,0,1,2.57-.82,5.07,5.07,0,0,1,2.37.5L68.34,16a4.14,4.14,0,0,0-2-.48,2,2,0,0,0-1.39.43,1.24,1.24,0,0,0-.42.95,1.28,1.28,0,0,0,.48,1,5.42,5.42,0,0,0,1.52.81,5.14,5.14,0,0,1,2,1.27A2.65,2.65,0,0,1,69.15,21.8Z"/><path class="cls-1" d="M74.7,18.46H72.85v3.66q0,1.39,1,1.39a2.92,2.92,0,0,0,.74-.08l0,1.27a3.78,3.78,0,0,1-1.3.19,2,2,0,0,1-1.55-.61,3,3,0,0,1-.56-2v-3.8h-1.1V17.2h1.1V15.82l1.64-.5V17.2H74.7Z"/><path class="cls-1" d="M83,20.9a4.13,4.13,0,0,1-1,2.85,3.54,3.54,0,0,1-2.76,1.15,3.37,3.37,0,0,1-2.64-1.1,4,4,0,0,1-1-2.77,4.1,4.1,0,0,1,1-2.87A3.52,3.52,0,0,1,79.38,17,3.44,3.44,0,0,1,82,18.15,4,4,0,0,1,83,20.9Zm-1.74,0a3.37,3.37,0,0,0-.45-1.78,1.66,1.66,0,0,0-1.5-.9,1.68,1.68,0,0,0-1.53.9A3.42,3.42,0,0,0,77.33,21a3.36,3.36,0,0,0,.45,1.78,1.72,1.72,0,0,0,3,0A3.39,3.39,0,0,0,81.27,20.94Z"/><path class="cls-1" d="M88.44,18.67a2.9,2.9,0,0,0-.53,0,1.58,1.58,0,0,0-1.36.67,2.51,2.51,0,0,0-.42,1.49v4H84.46V19.57c0-.87,0-1.66,0-2.37h1.46l.06,1.44h0a2.58,2.58,0,0,1,.84-1.19A2,2,0,0,1,88,17a2.75,2.75,0,0,1,.42,0v1.6Z"/><path class="cls-1" d="M95.93,20.61a3.94,3.94,0,0,1-.06.76h-5a2.18,2.18,0,0,0,.73,1.71,2.49,2.49,0,0,0,1.64.53,5.54,5.54,0,0,0,2-.36l.26,1.16a6.29,6.29,0,0,1-2.52.47,3.66,3.66,0,0,1-2.75-1,3.81,3.81,0,0,1-1-2.77,4.31,4.31,0,0,1,.93-2.83A3.21,3.21,0,0,1,92.8,17a2.81,2.81,0,0,1,2.47,1.21A4.06,4.06,0,0,1,95.93,20.61Zm-1.6-.43A2.27,2.27,0,0,0,94,18.89a1.46,1.46,0,0,0-1.33-.7,1.59,1.59,0,0,0-1.33.68,2.51,2.51,0,0,0-.5,1.3Z"/><path class="cls-1" d="M38.31,10.55h-.88L37,9H35.29l-.46,1.51H34l1.65-5.13h1Zm-1.5-2.14-.43-1.34c0-.14-.13-.46-.26-1h0c-.05.22-.13.54-.24,1l-.43,1.34Z"/><path class="cls-1" d="M42.44,6.85,41,10.55h-.8l-1.36-3.7h.88l.63,2c.11.33.2.64.27.94h0c.06-.27.15-.58.27-.94l.62-2Z"/><path class="cls-1" d="M45.43,10.55l-.06-.43h0a1.26,1.26,0,0,1-1.08.51,1.08,1.08,0,0,1-1.14-1.09c0-.91.79-1.39,2.16-1.39V8.09c0-.49-.26-.73-.77-.73a1.73,1.73,0,0,0-1,.27l-.17-.54a2.37,2.37,0,0,1,1.27-.32c1,0,1.46.51,1.46,1.53V9.67a5.52,5.52,0,0,0,.05.88ZM45.31,8.7c-.91,0-1.37.22-1.37.75a.52.52,0,0,0,.56.58.79.79,0,0,0,.81-.75Z"/><path class="cls-1" d="M47.95,6.24a.49.49,0,1,1,.52-.5A.48.48,0,0,1,47.95,6.24Zm.43,4.31h-.82V6.85h.82Z"/><path class="cls-1" d="M50.66,10.55h-.82V5.15h.82Z"/><path class="cls-1" d="M54.15,10.55l-.06-.43h0a1.26,1.26,0,0,1-1.08.51,1.08,1.08,0,0,1-1.13-1.09c0-.91.79-1.39,2.16-1.39V8.09c0-.49-.26-.73-.77-.73a1.73,1.73,0,0,0-1,.27l-.17-.54a2.37,2.37,0,0,1,1.27-.32c1,0,1.46.51,1.46,1.53V9.66a5.72,5.72,0,0,0,.05.88ZM54,8.7c-.91,0-1.37.22-1.37.75a.52.52,0,0,0,.56.58A.79.79,0,0,0,54,9.28Z"/><path class="cls-1" d="M58.17,10.63A1.26,1.26,0,0,1,57,10h0l0,.57h-.7c0-.3,0-.63,0-1V5.15h.82V7.39h0a1.27,1.27,0,0,1,1.18-.62c.89,0,1.52.76,1.52,1.87A1.78,1.78,0,0,1,58.17,10.63ZM58,7.42a1,1,0,0,0-.91,1V9A.91.91,0,0,0,58,10c.62,0,1-.5,1-1.3S58.59,7.42,58,7.42Z"/><path class="cls-1" d="M61.85,10.55H61V5.15h.82Z"/><path class="cls-1" d="M66.33,8.9H63.86A1.06,1.06,0,0,0,65,10a2.78,2.78,0,0,0,1-.18l.13.57a3.09,3.09,0,0,1-1.24.23,1.72,1.72,0,0,1-1.84-1.87,1.81,1.81,0,0,1,1.75-2,1.56,1.56,0,0,1,1.54,1.76A1.58,1.58,0,0,1,66.33,8.9Zm-.75-.59c0-.57-.29-1-.82-1a1,1,0,0,0-.9,1Z"/><path class="cls-1" d="M71.31,10.63a1.76,1.76,0,0,1-1.78-1.9,1.8,1.8,0,0,1,1.84-2,1.75,1.75,0,0,1,1.78,1.9A1.81,1.81,0,0,1,71.31,10.63Zm0-3.26c-.59,0-1,.56-1,1.33s.39,1.32,1,1.32,1-.59,1-1.33S71.92,7.37,71.34,7.37Z"/><path class="cls-1" d="M77.58,10.55h-.82V8.42c0-.65-.25-1-.75-1a.85.85,0,0,0-.82.91v2.2h-.82V7.9c0-.33,0-.68,0-1.06h.72l0,.57h0a1.33,1.33,0,0,1,1.17-.65c.78,0,1.29.59,1.29,1.56v2.22Z"/><path class="cls-1" d="M83,7.46h-.91v1.8q0,.69.48.69a1.64,1.64,0,0,0,.37,0l0,.62a1.83,1.83,0,0,1-.64.09c-.65,0-1-.36-1-1.3V7.46h-.54V6.85h.54V6.17l.81-.24v.92H83Z"/><path class="cls-1" d="M87.32,10.55h-.82V8.44c0-.66-.25-1-.75-1a.81.81,0,0,0-.82.88v2.23H84.1V5.15h.82V7.37h0a1.25,1.25,0,0,1,1.11-.6c.78,0,1.26.61,1.26,1.58Z"/><path class="cls-1" d="M91.52,8.9H89.05A1.06,1.06,0,0,0,90.22,10a2.77,2.77,0,0,0,1-.18l.13.57a3.09,3.09,0,0,1-1.24.23,1.72,1.72,0,0,1-1.84-1.87,1.81,1.81,0,0,1,1.75-2,1.56,1.56,0,0,1,1.54,1.76A1.58,1.58,0,0,1,91.52,8.9Zm-.75-.59c0-.57-.29-1-.81-1a1,1,0,0,0-.9,1Z"/></svg>