<?xml version="1.0" encoding="utf-8"?>
<!-- Generator: Adobe Illustrator 21.1.0, SVG Export Plug-In . SVG Version: 6.00 Build 0)  -->
<!DOCTYPE svg PUBLIC "-//W3C//DTD SVG 1.1//EN" "http://www.w3.org/Graphics/SVG/1.1/DTD/svg11.dtd">
<svg version="1.1" id="Layer_1" xmlns="http://www.w3.org/2000/svg" xmlns:xlink="http://www.w3.org/1999/xlink" x="0px" y="0px"
	 viewBox="0 0 85.7 82.3" style="enable-background:new 0 0 85.7 82.3;" xml:space="preserve">
<style type="text/css">
	.st0{fill:#D1754B;}
</style>
<g>
	<g>
		<path class="st0" d="M57.9,66.8H27.8c-2.7,0-4.9-2.2-4.9-4.9V21.3c0-1.2,1-2.2,2.2-2.2c1.2,0,2.2,1,2.2,2.2v40.5
			c0,0.3,0.3,0.6,0.6,0.6h30.2c0.3,0,0.6-0.3,0.6-0.6V27.6c0-0.3-0.3-0.6-0.6-0.6c-1.2,0-2.2-1-2.2-2.2s1-2.2,2.2-2.2
			c2.7,0,4.9,2.2,4.9,4.9v34.2C62.9,64.6,60.7,66.8,57.9,66.8L57.9,66.8z"/>
	</g>
	<g>
		<path class="st0" d="M57.5,27h-28c-3.7,0-6.7-3-6.7-6.7c0-3.7,3-6.7,6.7-6.7h31.2c1.2,0,2.2,1,2.2,2.2s-1,2.2-2.2,2.2H29.5
			c-1.3,0-2.4,1.1-2.4,2.4c0,1.3,1.1,2.4,2.4,2.4h28c1.2,0,2.2,1,2.2,2.2S58.7,27,57.5,27L57.5,27z"/>
	</g>
	<g>
		<path class="st0" d="M42.7,50.4c-0.3,0-0.6-0.1-0.9-0.2L38,48.5l-3.9,1.7c-0.7,0.3-1.4,0.2-2.1-0.2c-0.6-0.4-1-1.1-1-1.8V27
			c0-1.2,1-2.2,2.2-2.2c1.2,0,2.2,1,2.2,2.2v18l1.7-0.8c0.6-0.2,1.2-0.2,1.7,0l1.7,0.8V27c0-1.2,1-2.2,2.2-2.2c1.2,0,2.2,1,2.2,2.2
			v21.3c0,0.7-0.4,1.4-1,1.8C43.6,50.3,43.2,50.4,42.7,50.4L42.7,50.4z"/>
	</g>
</g>
</svg>
