<svg id="Layer_1" data-name="Layer 1" xmlns="http://www.w3.org/2000/svg" xmlns:xlink="http://www.w3.org/1999/xlink" viewBox="0 0 106 31.39"><defs><style>.cls-1{fill:none;}.cls-2{fill:#fff;}.cls-3{fill:url(#linear-gradient);}.cls-4{fill:#e1e1e1;}.cls-5{clip-path:url(#clip-path);}.cls-6{fill:url(#linear-gradient-2);}.cls-7{fill:url(#linear-gradient-3);}.cls-8{fill:url(#linear-gradient-4);}.cls-9{fill:url(#linear-gradient-5);}</style><linearGradient id="linear-gradient" x1="77.72" y1="782.47" x2="77.72" y2="754.18" gradientTransform="translate(0 -751)" gradientUnits="userSpaceOnUse"><stop offset="0" stop-color="#1a1a1a" stop-opacity="0.1"/><stop offset="0.12" stop-color="#212120" stop-opacity="0.15"/><stop offset="0.31" stop-color="#353535" stop-opacity="0.23"/><stop offset="0.53" stop-color="#575757" stop-opacity="0.32"/><stop offset="0.78" stop-color="#838484" stop-opacity="0.42"/><stop offset="1" stop-color="#b3b2b3" stop-opacity="0.51"/></linearGradient><clipPath id="clip-path"><path class="cls-1" d="M22.56,12,18.15,9.52,9.65,4.81c-.47-.26-.94-.1-.94.44V24.44c0,.41.34.59.75.36L18.15,20l4.41-2.44,4.24-2.35c.5-.28.45-.65,0-.87S22.56,12,22.56,12Z"/></clipPath><linearGradient id="linear-gradient-2" x1="14.17" y1="4.36" x2="14.17" y2="25.14" gradientUnits="userSpaceOnUse"><stop offset="0" stop-color="#237caf"/><stop offset="0.21" stop-color="#3b90b2"/><stop offset="0.74" stop-color="#72bdb9"/><stop offset="1" stop-color="#88cebc"/></linearGradient><linearGradient id="linear-gradient-3" x1="8.71" y1="9.52" x2="22.56" y2="9.52" gradientUnits="userSpaceOnUse"><stop offset="0" stop-color="#51bfac"/><stop offset="1" stop-color="#dde798"/></linearGradient><linearGradient id="linear-gradient-4" x1="15.64" y1="14.75" x2="15.64" y2="25.21" gradientUnits="userSpaceOnUse"><stop offset="0" stop-color="#eb403d"/><stop offset="0.19" stop-color="#d64252"/><stop offset="0.74" stop-color="#9f4887"/><stop offset="1" stop-color="#894a9c"/></linearGradient><linearGradient id="linear-gradient-5" x1="23.61" y1="11.96" x2="23.61" y2="17.54" gradientUnits="userSpaceOnUse"><stop offset="0" stop-color="#f48678"/><stop offset="0.62" stop-color="#fab075"/><stop offset="1" stop-color="#fdc674"/></linearGradient></defs><title>Google Play</title><path class="cls-2" d="M105.25,27.68a3,3,0,0,1-3,3H3.76a3,3,0,0,1-3-3v-24a3,3,0,0,1,3-3h98.48a3,3,0,0,1,3,3v24Z"/><path d="M102.24,31.39H3.76A3.71,3.71,0,0,1,0,27.68v-24A3.72,3.72,0,0,1,3.76,0h98.48A3.72,3.72,0,0,1,106,3.71v24a3.71,3.71,0,0,1-3.71,3.71Z"/><path d="M105.25,27.68a3,3,0,0,1-3,3H3.76a3,3,0,0,1-3-3v-24a3,3,0,0,1,3-3h98.48a3,3,0,0,1,3,3v24Z"/><path class="cls-3" d="M102.24,0H49.49L70.15,31.39h32.09A3.71,3.71,0,0,0,106,27.68v-24A3.72,3.72,0,0,0,102.24,0Z"/><path class="cls-4" d="M36.82,5.29a2.08,2.08,0,0,1,1.53.65l-.5.56a1.34,1.34,0,0,0-1-.42c-.91,0-1.52.71-1.52,1.86s.55,1.87,1.58,1.87a1.13,1.13,0,0,0,.73-.23V8.48h-1V7.74h1.78V10a2.48,2.48,0,0,1-1.66.61A2.37,2.37,0,0,1,34.38,8,2.43,2.43,0,0,1,36.82,5.29Z"/><path class="cls-4" d="M41,6.57c1,0,1.59.75,1.59,1.83a2,2,0,0,1,0,.42H40.1a1.11,1.11,0,0,0,1.14,1.09,1.61,1.61,0,0,0,.89-.28l.31.56a2.43,2.43,0,0,1-1.32.42,1.86,1.86,0,0,1-1.9-2A1.87,1.87,0,0,1,41,6.57Zm.81,1.68c0-.61-.26-1-.78-1s-.85.34-.93,1Z"/><path class="cls-4" d="M43.47,7.38h-.55V6.7l.6,0,.11-1.05h.75V6.66h1v.71h-1V9.21c0,.45.17.67.54.67a1.1,1.1,0,0,0,.4-.09l.16.67a2.46,2.46,0,0,1-.78.14c-.89,0-1.22-.56-1.22-1.4Z"/><path class="cls-4" d="M47.68,5.48a.56.56,0,1,1,.56.51A.52.52,0,0,1,47.68,5.48Zm.1,1.18h.9v3.85h-.9Z"/><path class="cls-4" d="M50,7.38h-.55V6.7l.6,0,.11-1.05h.75V6.66h1v.71h-1V9.21c0,.45.17.67.54.67a1.1,1.1,0,0,0,.4-.09l.16.67a2.46,2.46,0,0,1-.78.14C50.3,10.61,50,10,50,9.21Z"/><path class="cls-4" d="M55.86,6.57a1.86,1.86,0,0,1,1.84,2,1.84,1.84,0,1,1-3.66,0A1.86,1.86,0,0,1,55.86,6.57Zm0,3.3c.57,0,.91-.51.91-1.28s-.34-1.29-.91-1.29-.9.51-.9,1.29S55.29,9.87,55.86,9.87Z"/><path class="cls-4" d="M58.59,6.66h.75l.06.52h0a1.79,1.79,0,0,1,1.26-.61c.82,0,1.19.56,1.19,1.53v2.42H61V8.22c0-.64-.18-.87-.6-.87a1.22,1.22,0,0,0-.88.48v2.69h-.9Z"/><path class="cls-2" d="M79.52,24.05a2.71,2.71,0,0,1-1.12-.23,2.1,2.1,0,0,1-.85-.7h-.07a8.38,8.38,0,0,1,.07,1v2.58h-1V17.66h.77l.13.86h0a2.21,2.21,0,0,1,.85-.74,2.61,2.61,0,0,1,1.12-.23,2.32,2.32,0,0,1,1.93.85,3.76,3.76,0,0,1,.68,2.39,3.75,3.75,0,0,1-.69,2.4A2.33,2.33,0,0,1,79.52,24.05Zm-.14-5.7a1.68,1.68,0,0,0-1.39.53,2.74,2.74,0,0,0-.44,1.69v.21A3.14,3.14,0,0,0,78,22.69a1.68,1.68,0,0,0,1.41.57,1.47,1.47,0,0,0,1.27-.66,3.11,3.11,0,0,0,.46-1.82,3,3,0,0,0-.46-1.8A1.51,1.51,0,0,0,79.38,18.35Z"/><path class="cls-2" d="M84.32,23.94h-1V15h1Z"/><path class="cls-2" d="M89.79,23.94,89.6,23h0a2.62,2.62,0,0,1-.94.8,2.86,2.86,0,0,1-1.17.21A2.1,2.1,0,0,1,86,23.57a1.76,1.76,0,0,1-.53-1.37q0-1.9,3-2l1.07,0v-.39a1.59,1.59,0,0,0-.32-1.09,1.31,1.31,0,0,0-1-.35,4.14,4.14,0,0,0-1.77.48l-.29-.73a4.6,4.6,0,0,1,1-.39,4.39,4.39,0,0,1,1.11-.14,2.39,2.39,0,0,1,1.66.5,2.08,2.08,0,0,1,.54,1.6v4.28Zm-2.15-.67A1.93,1.93,0,0,0,89,22.78a1.81,1.81,0,0,0,.51-1.36v-.57l-1,0a3.45,3.45,0,0,0-1.63.35,1.06,1.06,0,0,0-.5,1,1,1,0,0,0,.31.78A1.29,1.29,0,0,0,87.64,23.27Z"/><path class="cls-2" d="M91,17.66h1l1.38,3.58A13.62,13.62,0,0,1,94,23h0c0-.2.15-.53.31-1s.68-1.92,1.55-4.35h1l-2.7,7.15a3.57,3.57,0,0,1-.94,1.5,2,2,0,0,1-1.31.44,3.86,3.86,0,0,1-.86-.1v-.76a3.21,3.21,0,0,0,.7.07,1.45,1.45,0,0,0,1.4-1.1l.35-.89Z"/><path class="cls-2" d="M61.91,18.25a2.14,2.14,0,0,1-.17,3.64.92.92,0,0,0-.37.64.72.72,0,0,0,.34.56l.47.37a2.29,2.29,0,0,1,1.1,1.84c0,1.23-1.19,2.48-3.45,2.48-1.9,0-2.82-.91-2.82-1.88a1.89,1.89,0,0,1,1-1.6,5.66,5.66,0,0,1,2.51-.6,1.37,1.37,0,0,1-.39-.89,1.19,1.19,0,0,1,.13-.51l-.42,0a2.08,2.08,0,0,1-2.18-2.06,2.36,2.36,0,0,1,.84-1.76,3.58,3.58,0,0,1,2.35-.72h2.7l-.84.47ZM61,24.07h-.3a5.2,5.2,0,0,0-1.38.21,1.47,1.47,0,0,0-1.13,1.35c0,.93.91,1.6,2.31,1.6s1.93-.6,1.93-1.42S62,24.78,61,24.07Zm.38-2.49a1.32,1.32,0,0,0,.33-1c0-.95-.56-2.42-1.65-2.42a1.23,1.23,0,0,0-.92.43,1.52,1.52,0,0,0-.29,1c0,.88.51,2.34,1.64,2.34A1.34,1.34,0,0,0,61.36,21.58Z"/><path class="cls-2" d="M53.65,23.86a3.09,3.09,0,0,1-3.2-3.09,3.25,3.25,0,0,1,3.39-3.18A3.06,3.06,0,0,1,57,20.68,3.2,3.2,0,0,1,53.65,23.86Zm1.64-1.06a2.37,2.37,0,0,0,.39-1.45c0-1.15-.55-3.35-2.18-3.35a1.82,1.82,0,0,0-1.18.45,2,2,0,0,0-.6,1.6c0,1.3.64,3.43,2.23,3.43A1.67,1.67,0,0,0,55.29,22.8Z"/><path class="cls-2" d="M46.54,23.86a3.09,3.09,0,0,1-3.2-3.09,3.25,3.25,0,0,1,3.39-3.18,3.06,3.06,0,0,1,3.13,3.09A3.2,3.2,0,0,1,46.54,23.86Zm1.64-1.06a2.38,2.38,0,0,0,.39-1.45C48.58,20.19,48,18,46.4,18a1.83,1.83,0,0,0-1.18.45,2,2,0,0,0-.6,1.6c0,1.3.64,3.43,2.23,3.43A1.68,1.68,0,0,0,48.18,22.8Z"/><path class="cls-2" d="M42.35,23.66l-1.88.43a14,14,0,0,1-2.17.22,4.68,4.68,0,0,1-5-4.77,5,5,0,0,1,5.32-4.93,7.6,7.6,0,0,1,2,.28,5.13,5.13,0,0,1,1.74.82l-1.09,1-.46.11.33-.53a3.77,3.77,0,0,0-2.82-1.24A3.64,3.64,0,0,0,34.65,19a4.66,4.66,0,0,0,4.66,4.81A3.93,3.93,0,0,0,41,23.46V21.34l-2,.11,1.05-.57h2.79l-.34.33a.3.3,0,0,0-.13.21c0,.12,0,.5,0,.63Z"/><path class="cls-2" d="M66.08,23.28c-.44,0-.53-.12-.53-.63V15.1c.05-.46.18-.54.59-.78H64.27l-1,.47h1v8.13c0,.26-.05.3-.36.7h2.33l.49-.29Z"/><path class="cls-2" d="M71.44,23.4c-.14.08-.29.17-.43.24a3,3,0,0,1-1.27.25A2.79,2.79,0,0,1,68,23.37a3.38,3.38,0,0,1-1.34-2.76,3,3,0,0,1,3-3A2.55,2.55,0,0,1,71,18a2.17,2.17,0,0,1,.91,1.29l-3.07,1.24-1,.08a2.91,2.91,0,0,0,2.7,2.63,3.39,3.39,0,0,0,1.6-.46Zm-1.23-3.9c.25-.09.38-.17.38-.35A1.3,1.3,0,0,0,69.29,18a1.61,1.61,0,0,0-1.5,1.82c0,.22,0,.46,0,.69Z"/><path class="cls-2" d="M72.7,17.68v.86h-.11v-.86h-.29v-.09H73v.09Z"/><path class="cls-2" d="M73.88,18.54v-.87h0l-.27.87h-.08l-.27-.87h0v.87h-.1v-1h.16l.24.77h0l.24-.77H74v1Z"/><g id="PLAY"><g class="cls-5"><polygon class="cls-6" points="8.71 4.36 8.71 14.75 8.71 25.14 19.63 14.75 8.71 4.36"/><polygon class="cls-7" points="22.56 11.96 18.15 9.52 8.71 4.29 8.71 4.36 19.63 14.75 22.56 11.96"/><polygon class="cls-8" points="8.71 25.14 8.71 25.21 18.15 19.98 22.56 17.54 19.63 14.75 8.71 25.14"/><polygon class="cls-9" points="22.56 11.96 19.63 14.75 22.56 17.54 27.6 14.75 22.56 11.96"/></g></g></svg>